<mxfile host="app.diagrams.net" modified="2024-04-30T01:33:27.675Z" agent="Mozilla/5.0 (Windows NT 10.0; Win64; x64) AppleWebKit/537.36 (KHTML, like Gecko) Chrome/122.0.0.0 Safari/537.36 Edg/122.0.0.0" etag="xrHG9ypNYOhI-0lr9YoP" version="24.3.1" type="github">
  <diagram name="第 1 页" id="80joQyhOo5EZq3bWj2U3">
    <mxGraphModel dx="1678" dy="893" grid="1" gridSize="10" guides="1" tooltips="1" connect="1" arrows="1" fold="1" page="1" pageScale="1" pageWidth="1654" pageHeight="2336" math="0" shadow="0">
      <root>
        <mxCell id="0" />
        <mxCell id="1" parent="0" />
        <mxCell id="kex4DzC8fjRI16V1VYOr-6" value="&lt;p style=&quot;margin:0px;margin-top:4px;text-align:center;&quot;&gt;&lt;span style=&quot;font-weight: 700;&quot;&gt;AbsComponent&lt;/span&gt;&lt;br&gt;&lt;/p&gt;&lt;hr size=&quot;1&quot; style=&quot;border-style:solid;&quot;&gt;&lt;p style=&quot;margin:0px;margin-left:4px;&quot;&gt;&lt;span style=&quot;background-color: initial;&quot;&gt;+ executorFactory:&lt;/span&gt;&lt;span style=&quot;background-color: initial;&quot;&gt;AbsExecutorFactory&lt;/span&gt;&lt;br&gt;&lt;/p&gt;&lt;hr size=&quot;1&quot; style=&quot;border-style:solid;&quot;&gt;&lt;div&gt;&amp;nbsp;+ AbsComponent(executorFactory:AbsExecutorFactory)&lt;/div&gt;&lt;p style=&quot;margin:0px;margin-left:4px;&quot;&gt;+ bind(): void&lt;/p&gt;&lt;div&gt;&amp;nbsp;+ unbind() void&lt;/div&gt;&lt;div&gt;&amp;nbsp;+ execute(runnable:Runnable):void&lt;/div&gt;&lt;div&gt;&amp;nbsp;+ runOnMainThread(runnable:Runnable):void&lt;/div&gt;&lt;div&gt;&amp;nbsp;+ queueWok(absWork:AbsWork):void&lt;/div&gt;&lt;div&gt;&lt;br&gt;&lt;br&gt;&lt;/div&gt;" style="verticalAlign=top;align=left;overflow=fill;html=1;whiteSpace=wrap;" vertex="1" parent="1">
          <mxGeometry x="450" y="140" width="540" height="180" as="geometry" />
        </mxCell>
        <mxCell id="kex4DzC8fjRI16V1VYOr-7" value="&lt;p style=&quot;margin:0px;margin-top:4px;text-align:center;&quot;&gt;&lt;span style=&quot;font-weight: 700;&quot;&gt;AbsDependentComponent&lt;/span&gt;&lt;br&gt;&lt;/p&gt;&lt;hr size=&quot;1&quot; style=&quot;border-style:solid;&quot;&gt;&lt;p style=&quot;margin:0px;margin-left:4px;&quot;&gt;&lt;span style=&quot;background-color: initial; text-wrap: nowrap;&quot;&gt;+ hostContext:&lt;/span&gt;&lt;span style=&quot;background-color: initial;&quot;&gt;AbsComponentsContext&lt;/span&gt;&lt;/p&gt;&lt;hr size=&quot;1&quot; style=&quot;border-style:solid;&quot;&gt;&lt;div&gt;&amp;nbsp;+&amp;nbsp;&lt;span style=&quot;font-weight: 700; text-align: center;&quot;&gt;AbsDependentComponent&lt;/span&gt;(hostContext:AbsComponentsContext,executorFactory:AbsExecutorFactory)&lt;/div&gt;&lt;div&gt;&lt;br&gt;&lt;br&gt;&lt;/div&gt;" style="verticalAlign=top;align=left;overflow=fill;html=1;whiteSpace=wrap;" vertex="1" parent="1">
          <mxGeometry x="30" y="470" width="590" height="90" as="geometry" />
        </mxCell>
        <mxCell id="kex4DzC8fjRI16V1VYOr-8" value="Extends" style="endArrow=block;endSize=16;endFill=0;html=1;rounded=0;exitX=0.48;exitY=0.022;exitDx=0;exitDy=0;entryX=0.481;entryY=1;entryDx=0;entryDy=0;entryPerimeter=0;exitPerimeter=0;" edge="1" parent="1" source="kex4DzC8fjRI16V1VYOr-7" target="kex4DzC8fjRI16V1VYOr-6">
          <mxGeometry width="160" relative="1" as="geometry">
            <mxPoint x="372.02" y="451.08" as="sourcePoint" />
            <mxPoint x="367.98" y="300.00000000000006" as="targetPoint" />
          </mxGeometry>
        </mxCell>
        <mxCell id="kex4DzC8fjRI16V1VYOr-9" value="&lt;p style=&quot;margin:0px;margin-top:4px;text-align:center;&quot;&gt;&lt;b&gt;AbsComponentsContext&lt;/b&gt;&lt;/p&gt;&lt;hr size=&quot;1&quot; style=&quot;border-style:solid;&quot;&gt;&lt;p style=&quot;margin:0px;margin-left:4px;&quot;&gt;+ componentFetcher: ComponentFetcher&lt;/p&gt;&lt;hr size=&quot;1&quot; style=&quot;border-style:solid;&quot;&gt;&lt;p style=&quot;margin:0px;margin-left:4px;&quot;&gt;+ registerComponent(compoenent:AbsComponent): void&lt;/p&gt;&lt;p style=&quot;margin:0px;margin-left:4px;&quot;&gt;+ ungisterComponent(component:AbsComponent):void&lt;/p&gt;&lt;p style=&quot;margin:0px;margin-left:4px;&quot;&gt;+ &amp;lt;T&amp;gt; getCompoentDelegate(Class&amp;lt;T&amp;gt;) : T&lt;/p&gt;" style="verticalAlign=top;align=left;overflow=fill;html=1;whiteSpace=wrap;" vertex="1" parent="1">
          <mxGeometry x="1110" y="160" width="320" height="120" as="geometry" />
        </mxCell>
        <mxCell id="kex4DzC8fjRI16V1VYOr-10" value="&lt;p style=&quot;margin:0px;margin-top:4px;text-align:center;&quot;&gt;&lt;b&gt;AbsMultipleCompnents&lt;/b&gt;&lt;/p&gt;&lt;hr size=&quot;1&quot; style=&quot;border-style:solid;&quot;&gt;&lt;p style=&quot;margin:0px;margin-left:4px;&quot;&gt;+&amp;nbsp;&lt;span style=&quot;background-color: initial; text-wrap: nowrap;&quot;&gt;&amp;nbsp;hostContext:&lt;/span&gt;&lt;span style=&quot;background-color: initial;&quot;&gt;AbsComponentsContext&lt;/span&gt;&lt;/p&gt;&lt;hr size=&quot;1&quot; style=&quot;border-style:solid;&quot;&gt;&lt;p style=&quot;margin:0px;margin-left:4px;&quot;&gt;+&amp;nbsp;&lt;b style=&quot;background-color: initial; text-align: center;&quot;&gt;AbsMultipleCompnents(&lt;/b&gt;&lt;span style=&quot;background-color: initial;&quot;&gt;hostContext:AbsComponentsContext = null ,executorFactory:AbsExecutorFactory = null&lt;/span&gt;&lt;b style=&quot;background-color: initial; text-align: center;&quot;&gt;)&lt;/b&gt;&lt;/p&gt;&lt;p style=&quot;margin:0px;margin-left:4px;&quot;&gt;&lt;b style=&quot;background-color: initial; text-align: center;&quot;&gt;+ getComponents():List&amp;lt;String&amp;gt;&lt;/b&gt;&lt;/p&gt;" style="verticalAlign=top;align=left;overflow=fill;html=1;whiteSpace=wrap;" vertex="1" parent="1">
          <mxGeometry x="620" y="650" width="640" height="170" as="geometry" />
        </mxCell>
        <mxCell id="kex4DzC8fjRI16V1VYOr-11" value="Extends" style="endArrow=block;endSize=16;endFill=0;html=1;rounded=0;exitX=0.5;exitY=0;exitDx=0;exitDy=0;" edge="1" parent="1" source="kex4DzC8fjRI16V1VYOr-10" target="kex4DzC8fjRI16V1VYOr-6">
          <mxGeometry width="160" relative="1" as="geometry">
            <mxPoint x="850" y="494.5" as="sourcePoint" />
            <mxPoint x="1010" y="494.5" as="targetPoint" />
          </mxGeometry>
        </mxCell>
        <mxCell id="kex4DzC8fjRI16V1VYOr-12" value="Use" style="endArrow=open;endSize=12;dashed=1;html=1;rounded=0;entryX=0.472;entryY=1.025;entryDx=0;entryDy=0;entryPerimeter=0;exitX=0.517;exitY=0;exitDx=0;exitDy=0;exitPerimeter=0;" edge="1" parent="1" source="kex4DzC8fjRI16V1VYOr-10" target="kex4DzC8fjRI16V1VYOr-9">
          <mxGeometry width="160" relative="1" as="geometry">
            <mxPoint x="1000" y="540" as="sourcePoint" />
            <mxPoint x="1160" y="540" as="targetPoint" />
          </mxGeometry>
        </mxCell>
        <mxCell id="kex4DzC8fjRI16V1VYOr-13" value="Use" style="endArrow=open;endSize=12;dashed=1;html=1;rounded=0;entryX=0.25;entryY=1;entryDx=0;entryDy=0;exitX=0.75;exitY=0;exitDx=0;exitDy=0;" edge="1" parent="1" source="kex4DzC8fjRI16V1VYOr-7" target="kex4DzC8fjRI16V1VYOr-9">
          <mxGeometry width="160" relative="1" as="geometry">
            <mxPoint x="650" y="570" as="sourcePoint" />
            <mxPoint x="810" y="570" as="targetPoint" />
          </mxGeometry>
        </mxCell>
      </root>
    </mxGraphModel>
  </diagram>
</mxfile>
